<svg width="914" height="400" fill="none" xmlns="http://www.w3.org/2000/svg"><path fill="#fff" d="M0 0h914v400H0z"/><path d="M416.248 192.843c-.187 0-.234-.093-.141-.233l.982-1.26c.094-.14.328-.234.515-.234h16.692c.187 0 .234.14.141.28l-.795 1.214c-.094.14-.328.28-.468.28l-16.926-.047Zm-7.061 4.293c-.187 0-.234-.093-.14-.233l.982-1.26c.093-.14.327-.234.514-.234h21.322c.187 0 .28.14.234.28l-.374 1.12c-.047.187-.234.28-.421.28l-22.117.047Zm11.315 4.293c-.187 0-.233-.14-.14-.28l.655-1.166c.093-.14.28-.28.467-.28h9.352c.187 0 .281.14.281.326l-.094 1.12c0 .187-.187.327-.327.327l-10.194-.047Zm48.536-9.426c-2.946.746-4.957 1.306-7.856 2.053-.701.187-.748.233-1.356-.467-.701-.793-1.215-1.306-2.197-1.773-2.946-1.447-5.798-1.027-8.464.7-3.179 2.053-4.816 5.087-4.769 8.867.047 3.733 2.618 6.813 6.312 7.326 3.18.42 5.845-.7 7.949-3.08.421-.513.795-1.073 1.263-1.726h-9.025c-.981 0-1.215-.607-.888-1.4.608-1.447 1.73-3.874 2.385-5.087.14-.28.467-.747 1.169-.747h17.02c-.094 1.26-.094 2.52-.281 3.78-.514 3.36-1.777 6.44-3.834 9.147-3.367 4.433-7.762 7.187-13.326 7.933-4.582.607-8.837-.28-12.578-3.08-3.46-2.613-5.424-6.066-5.938-10.36-.608-5.086.888-9.66 3.974-13.673 3.32-4.34 7.715-7.093 13.092-8.073 4.396-.794 8.604-.28 12.391 2.286 2.478 1.634 4.255 3.874 5.424 6.58.281.42.094.654-.467.794Z" fill="#00ACD7"/><path d="M484.515 217.809c-4.255-.093-8.136-1.306-11.409-4.106-2.759-2.38-4.489-5.414-5.05-9.007-.842-5.273.608-9.94 3.787-14.093 3.414-4.48 7.528-6.814 13.093-7.794 4.769-.84 9.258-.373 13.326 2.38 3.694 2.52 5.985 5.927 6.593 10.407.795 6.3-1.029 11.433-5.378 15.82-3.086 3.127-6.873 5.087-11.222 5.973-1.262.234-2.525.28-3.74.42Zm11.128-18.853c-.047-.607-.047-1.073-.14-1.54-.842-4.62-5.097-7.233-9.539-6.207-4.348.98-7.154 3.734-8.182 8.12-.842 3.64.935 7.327 4.301 8.82 2.572 1.12 5.144.98 7.622-.28 3.694-1.913 5.704-4.9 5.938-8.913Z" fill="#00ACD7"/></svg>